<?xml version="1.0" standalone="no"?>
<!DOCTYPE svg PUBLIC "-//W3C//DTD SVG 20010904//EN"
 "http://www.w3.org/TR/2001/REC-SVG-20010904/DTD/svg10.dtd">
<svg version="1.0" xmlns="http://www.w3.org/2000/svg"
 width="84.000000pt" height="85.000000pt" viewBox="0 0 84.000000 85.000000"
 preserveAspectRatio="xMidYMid meet">

<g transform="translate(0.000000,85.000000) scale(0.100000,-0.100000)"
fill="#000000" stroke="none">
<path d="M225 733 c-49 -125 -135 -370 -133 -380 4 -18 340 -264 354 -259 29
11 344 251 344 262 0 13 -125 358 -139 382 -11 19 -11 18 -56 -125 l-39 -123
-116 0 -116 0 -39 123 c-42 133 -49 147 -60 120z m45 -138 c17 -49 30 -92 30
-97 0 -4 -31 -8 -70 -8 -38 0 -70 2 -70 4 0 4 39 116 62 175 5 13 11 22 13 19
3 -3 19 -45 35 -93z m419 -8 c17 -48 31 -90 31 -93 0 -2 -31 -4 -70 -4 -38 0
-70 3 -70 7 0 24 64 193 70 186 4 -4 21 -48 39 -96z m-332 -257 c23 -74 42
-141 40 -148 -2 -11 -227 269 -227 283 0 3 32 5 72 3 l71 -3 44 -135z m183
129 c0 -18 -94 -309 -100 -309 -6 0 -100 291 -100 309 0 7 36 11 100 11 64 0
100 -4 100 -11z m170 5 c0 -12 -225 -293 -228 -285 -2 7 57 209 83 279 4 12
145 19 145 6z m-447 -154 c58 -74 103 -137 101 -139 -1 -2 -60 38 -129 89
-111 82 -126 95 -121 116 12 45 26 76 35 72 5 -2 56 -64 114 -138z m487 115
c27 -71 31 -65 -105 -165 -69 -51 -128 -91 -129 -89 -5 6 208 279 217 279 4 0
12 -11 17 -25z"/>
</g>
</svg>